<svg xmlns="http://www.w3.org/2000/svg" viewBox="0 0 512 512">
    <rect width="512" height="512" rx="50" ry="50" fill="#1c1c1c"/>
    <path d="M153.600 0L27.600 0L27.600-216.600L57.900-216.600L57.900-26.100L153.600-26.100L153.600 0ZM256.200 4.200L256.200 4.200Q235.200 4.200 219.000-4.350Q202.800-12.900 193.650-28.350Q184.500-43.800 184.500-64.500L184.500-64.500L215.100-64.500Q215.100-52.800 220.350-43.200Q225.600-33.600 234.750-27.900Q243.900-22.200 255.300-22.200L255.300-22.200Q316.800-22.200 316.800-57.900L316.800-57.900Q316.800-85.800 283.200-94.800L283.200-94.800Q267.600-98.100 252.150-101.700Q236.700-105.300 221.100-108.900L221.100-108.900Q187.500-122.400 187.500-161.400L187.500-161.400Q187.500-188.100 211.800-205.500L211.800-205.500Q233.400-220.800 261.300-220.800L261.300-220.800Q294.300-220.800 314.400-207.900L314.400-207.900Q338.400-192.900 338.400-162L338.400-162L308.100-162Q308.400-181.800 292.500-189.600L292.500-189.600Q281.400-194.700 259.500-194.700L259.500-194.700Q217.800-194.700 217.800-160.500L217.800-160.500Q217.800-137.700 251.400-129.300L251.400-129.300Q267-125.400 282.450-121.350Q297.900-117.300 313.500-113.100L313.500-113.100Q347.100-97.800 347.100-60.300L347.100-60.300Q347.100-25.800 317.400-9L317.400-9Q293.400 4.200 256.200 4.200ZM425.700 0L395.400 0L395.400-216.600L456.600-216.600Q495.000-216.600 514.200-205.800L514.200-205.800Q540.300-191.100 540.300-154.200L540.300-154.200Q540.300-117.600 514.200-102.600L514.200-102.600Q495.000-91.800 456.600-91.800L456.600-91.800L425.700-91.800L425.700 0ZM425.700-190.500L425.700-118.200L457.500-118.200Q485.400-118.200 498.300-126.300Q511.200-134.400 511.200-154.200L511.200-154.200Q511.200-174 498.300-182.250Q485.400-190.500 457.500-190.500L457.500-190.500L425.700-190.500Z"
          fill="#fff" transform="translate(-27.95000648498535, 364.2999954223633)"/>
</svg>